<mxfile host="app.diagrams.net" agent="Mozilla/5.0 (Windows NT 10.0; Win64; x64) AppleWebKit/537.36 (KHTML, like Gecko) Chrome/133.0.0.0 Safari/537.36" version="26.2.10">
  <diagram name="PaginÄƒ-1" id="bUPrMf2DZysh9TfSNZ8I">
    <mxGraphModel dx="927" dy="1660" grid="1" gridSize="10" guides="1" tooltips="1" connect="1" arrows="1" fold="1" page="1" pageScale="1" pageWidth="827" pageHeight="1169" math="0" shadow="0">
      <root>
        <mxCell id="0" />
        <mxCell id="1" parent="0" />
        <mxCell id="qmSy-Oy0e71p0wOUxL54-1" style="edgeStyle=orthogonalEdgeStyle;rounded=0;orthogonalLoop=1;jettySize=auto;html=1;exitX=0.5;exitY=0.5;exitDx=0;exitDy=0;exitPerimeter=0;entryX=0.5;entryY=1;entryDx=0;entryDy=0;endArrow=none;startFill=0;" edge="1" parent="1" source="qmSy-Oy0e71p0wOUxL54-2" target="qmSy-Oy0e71p0wOUxL54-3">
          <mxGeometry relative="1" as="geometry" />
        </mxCell>
        <mxCell id="qmSy-Oy0e71p0wOUxL54-2" value="Administrator" style="shape=umlActor;verticalLabelPosition=bottom;verticalAlign=top;html=1;outlineConnect=0;" vertex="1" parent="1">
          <mxGeometry x="200" y="15" width="30" height="60" as="geometry" />
        </mxCell>
        <mxCell id="qmSy-Oy0e71p0wOUxL54-35" style="edgeStyle=orthogonalEdgeStyle;rounded=0;orthogonalLoop=1;jettySize=auto;html=1;exitX=0.5;exitY=0;exitDx=0;exitDy=0;entryX=0.25;entryY=1;entryDx=0;entryDy=0;dashed=1;endArrow=open;endFill=0;" edge="1" parent="1" source="qmSy-Oy0e71p0wOUxL54-3" target="qmSy-Oy0e71p0wOUxL54-32">
          <mxGeometry relative="1" as="geometry" />
        </mxCell>
        <mxCell id="qmSy-Oy0e71p0wOUxL54-3" value="" style="rounded=0;whiteSpace=wrap;html=1;rotation=90;" vertex="1" parent="1">
          <mxGeometry x="310" y="-30" width="105" height="145" as="geometry" />
        </mxCell>
        <mxCell id="qmSy-Oy0e71p0wOUxL54-6" value="Start" style="ellipse;whiteSpace=wrap;html=1;" vertex="1" parent="1">
          <mxGeometry x="305" y="20" width="120" height="60" as="geometry" />
        </mxCell>
        <mxCell id="qmSy-Oy0e71p0wOUxL54-32" value="" style="rounded=0;whiteSpace=wrap;html=1;rotation=90;" vertex="1" parent="1">
          <mxGeometry x="500" y="-22.5" width="202.51" height="145" as="geometry" />
        </mxCell>
        <mxCell id="qmSy-Oy0e71p0wOUxL54-33" value="START" style="ellipse;whiteSpace=wrap;html=1;" vertex="1" parent="1">
          <mxGeometry x="541.26" y="60" width="120" height="80" as="geometry" />
        </mxCell>
        <mxCell id="qmSy-Oy0e71p0wOUxL54-34" value="Setup the simulation" style="ellipse;whiteSpace=wrap;html=1;" vertex="1" parent="1">
          <mxGeometry x="541.26" y="-40" width="120" height="80" as="geometry" />
        </mxCell>
        <mxCell id="qmSy-Oy0e71p0wOUxL54-36" style="edgeStyle=orthogonalEdgeStyle;rounded=0;orthogonalLoop=1;jettySize=auto;html=1;exitX=0.5;exitY=0;exitDx=0;exitDy=0;entryX=0.805;entryY=0.997;entryDx=0;entryDy=0;entryPerimeter=0;dashed=1;endArrow=open;endFill=0;" edge="1" parent="1" source="qmSy-Oy0e71p0wOUxL54-3" target="qmSy-Oy0e71p0wOUxL54-32">
          <mxGeometry relative="1" as="geometry" />
        </mxCell>
      </root>
    </mxGraphModel>
  </diagram>
</mxfile>
